<svg width="32" height="32" viewBox="0 0 32 32" fill="none" xmlns="http://www.w3.org/2000/svg">
  <!-- Background circle -->
  <circle cx="16" cy="16" r="15" fill="#3B82F6" stroke="#1E40AF" stroke-width="2"/>
  
  <!-- Table grid representing the resource table -->
  <rect x="8" y="8" width="16" height="16" rx="2" fill="white" opacity="0.9"/>
  
  <!-- Grid lines -->
  <line x1="12" y1="8" x2="12" y2="24" stroke="#3B82F6" stroke-width="1"/>
  <line x1="16" y1="8" x2="16" y2="24" stroke="#3B82F6" stroke-width="1"/>
  <line x1="20" y1="8" x2="20" y2="24" stroke="#3B82F6" stroke-width="1"/>
  
  <line x1="8" y1="12" x2="24" y2="12" stroke="#3B82F6" stroke-width="1"/>
  <line x1="8" y1="16" x2="24" y2="16" stroke="#3B82F6" stroke-width="1"/>
  <line x1="8" y1="20" x2="24" y2="20" stroke="#3B82F6" stroke-width="1"/>
  
  <!-- Small accent dots representing data -->
  <circle cx="10" cy="10" r="1" fill="#3B82F6"/>
  <circle cx="14" cy="10" r="1" fill="#3B82F6"/>
  <circle cx="18" cy="10" r="1" fill="#3B82F6"/>
  <circle cx="22" cy="10" r="1" fill="#3B82F6"/>
  
  <circle cx="10" cy="14" r="1" fill="#3B82F6"/>
  <circle cx="14" cy="14" r="1" fill="#3B82F6"/>
  <circle cx="18" cy="14" r="1" fill="#3B82F6"/>
  <circle cx="22" cy="14" r="1" fill="#3B82F6"/>
  
  <circle cx="10" cy="18" r="1" fill="#3B82F6"/>
  <circle cx="14" cy="18" r="1" fill="#3B82F6"/>
  <circle cx="18" cy="18" r="1" fill="#3B82F6"/>
  <circle cx="22" cy="18" r="1" fill="#3B82F6"/>
  
  <circle cx="10" cy="22" r="1" fill="#3B82F6"/>
  <circle cx="14" cy="22" r="1" fill="#3B82F6"/>
  <circle cx="18" cy="22" r="1" fill="#3B82F6"/>
  <circle cx="22" cy="22" r="1" fill="#3B82F6"/>
</svg>
